<svg width="1082" height="181" viewBox="0 0 1082 181" fill="none" xmlns="http://www.w3.org/2000/svg">
<g clip-path="url(#clip0_40_3039)">
<path d="M7.31884 94.4524C7.31884 94.4524 6.35139 90.9099 8.37041 89.3734C9.37993 89.032 10.4736 88.9466 15.1426 91.3367C31.2106 99.6595 58.2151 110.287 81.0553 100.769C103.938 91.2514 88.5425 124.073 88.5425 124.073C88.5425 124.073 83.7053 144.175 55.9857 138.157C32.8511 133.164 8.07597 109.732 7.31884 94.4524Z" fill="white" fill-opacity="0.5"/>
<path d="M12.4077 0C12.4077 0 26.5829 12.2494 79.0776 56.2532C121.099 86.2151 92.4957 131.798 76.2594 137.389C76.5117 115.622 73.357 114.214 32.5138 81.0934C-7.23571 48.9121 -6.14207 31.1996 12.4077 0Z" fill="white"/>
<path d="M8.45468 89.3308C-1.59837 92.3185 -3.02852 121.384 21.8728 143.279C47.0265 165.431 47.0265 165.431 56.9533 180.796C65.7024 173.113 76.765 145.328 53.0835 126.634C15.9419 100.812 8.45468 89.3308 8.45468 89.3308Z" fill="white"/>
</g>
<g clip-path="url(#clip1_40_3039)">
<path d="M302.919 72.881C300.007 69.5683 296.492 67.0586 292.475 65.352C287.956 63.4447 283.036 62.5412 278.115 62.6416C272.492 62.5412 266.868 63.6454 261.647 65.8539C257.228 67.8617 253.211 70.8733 249.998 74.5876C246.885 78.4023 244.575 82.8194 243.27 87.5376C241.763 92.5569 241.061 97.8774 241.061 103.098C241.061 108.418 241.763 113.739 243.37 118.858C244.776 123.577 247.287 127.893 250.701 131.507C254.215 135.221 258.634 138.032 263.354 139.839C269.78 142.048 276.609 142.75 283.337 141.947C295.99 140.341 301.413 135.523 305.229 130.503C311.856 121.569 309.948 120.063 309.948 120.063H295.488C293.881 120.063 290.467 126.889 279.822 126.889C272.492 126.889 269.68 125.785 265.965 122.372C262.651 119.36 260.743 114.542 260.341 108.017H309.747C311.153 108.017 311.455 107.113 311.555 105.808C311.856 100.186 312.157 92.5569 309.446 84.2248C307.94 80.0085 305.731 76.1938 302.919 72.881ZM260.441 93.7616C261.245 88.943 262.852 85.0279 265.462 82.217C268.274 79.105 272.291 77.5992 277.613 77.5992C280.023 77.4989 282.433 78.0008 284.542 79.0047C286.35 79.9081 287.956 81.2132 289.362 82.8194C290.668 84.526 291.672 86.4333 292.274 88.5414C292.777 90.248 293.078 91.9546 293.178 93.7616H260.441Z" fill="white"/>
<path d="M530.068 37.4446V79.8079H488.293V42.8655C488.293 39.8539 485.883 37.4446 482.871 37.4446H468.711V138.434C468.711 141.446 471.122 143.855 474.134 143.855H488.293V96.8738H530.068V138.334C530.068 141.345 532.478 143.755 535.49 143.755H549.649V42.8655C549.649 39.8539 547.239 37.4446 544.227 37.4446H530.068Z" fill="white"/>
<path d="M612.11 62.4409V112.835C612.11 117.453 609.8 121.77 605.784 124.079C594.737 130.503 583.189 122.472 583.189 111.932V67.9622C583.189 64.9506 580.779 62.5413 577.767 62.5413H563.607V113.839C563.607 130.403 577.064 143.855 593.633 143.855H601.666C618.135 143.855 631.692 130.403 631.692 113.839V67.9622C631.692 64.9506 629.282 62.5413 626.269 62.5413H612.11V62.4409Z" fill="white"/>
<path d="M682.906 62.4409C662.32 62.4409 645.55 77.0974 645.55 97.5764V108.719C645.55 129.299 662.32 143.855 682.906 143.855C703.492 143.855 720.262 129.299 720.262 108.719V97.5764C720.161 77.0974 703.492 62.4409 682.906 62.4409ZM700.58 110.024C700.58 119.662 692.647 126.187 682.906 126.187C673.266 126.187 665.232 119.762 665.232 110.024V96.2714C665.232 86.6342 673.165 80.109 682.906 80.109C692.546 80.109 700.58 86.5338 700.58 96.2714V110.024Z" fill="white"/>
<path d="M228.207 62.6417V60.132V59.4293C228.207 53.5064 228.207 47.5836 228.207 41.7611C228.207 39.0507 226.5 36.9425 223.889 36.2398C223.387 36.1394 222.885 36.0391 222.483 36.0391C217.864 36.0391 213.345 36.0391 208.826 36.0391C208.726 36.0391 208.525 36.0391 208.424 36.0391V60.0316V60.8347V67.5606V104.905C199.587 92.0551 190.851 79.2055 182.114 66.356L177.495 59.63C172.374 52.0006 167.152 44.3712 161.93 36.7418C161.629 36.2398 161.227 36.0391 160.725 36.0391C155.403 36.0391 150.181 36.0391 144.959 36.0391H144.256V60.0316V72.58C144.256 94.1632 144.256 115.646 144.256 137.229C144.256 139.639 144.859 141.646 146.867 143.152C146.867 143.152 147.47 143.554 148.574 143.855H164.039V143.152V134.117V73.0819C164.139 73.3831 164.24 73.4835 164.34 73.6842C174.884 89.5454 185.328 105.407 195.872 121.268C199.788 127.191 203.604 133.013 207.521 138.936C208.525 140.442 209.429 142.048 211.035 143.152C211.035 143.152 211.738 143.654 212.742 143.855H228.107V143.152V132.913L228.207 62.6417Z" fill="white"/>
<path d="M414.987 62.8423C412.476 73.0818 409.866 83.2209 407.355 93.36C404.845 103.499 402.234 113.638 400.024 123.878C399.924 123.777 399.924 123.677 399.924 123.577C399.723 122.573 399.623 121.569 399.422 120.565C398.217 114.843 397.112 109.121 395.706 103.399C392.694 90.8503 389.48 78.3019 386.367 65.7535C386.066 64.6493 385.765 63.6454 385.564 62.5412C385.363 62.5412 385.263 62.5412 385.062 62.5412C379.74 62.5412 374.418 62.5412 369.095 62.4408C368.694 62.4408 368.493 62.5412 368.392 62.9427C365.179 75.1899 361.966 87.3368 358.853 99.584C357.045 106.812 355.237 114.04 353.43 121.167C353.229 122.071 353.028 122.874 352.827 123.777C352.827 123.878 352.727 123.978 352.627 124.078C352.526 123.978 352.526 123.878 352.426 123.878C352.426 123.777 352.426 123.777 352.426 123.677C351.221 117.754 350.116 111.831 348.811 106.009C345.999 93.4604 343.187 80.912 340.375 68.3636C339.572 64.9504 336.66 62.4408 333.145 62.3404C328.526 62.24 324.007 62.24 319.388 62.24C319.287 62.24 319.287 62.24 319.086 62.24C326.517 88.8426 333.848 115.345 341.279 141.947L341.58 142.951C341.681 143.353 341.882 143.353 342.183 143.353C348.208 143.353 354.133 143.453 360.158 143.453C360.258 143.453 360.359 143.453 360.459 143.453C360.56 143.353 360.76 143.353 360.76 143.252V143.152L361.363 141.345C366.484 123.075 372.208 105.005 376.225 86.4333C376.325 87.136 376.526 87.9391 376.627 88.6418C377.932 94.3639 379.137 100.086 380.443 105.708C383.355 117.754 386.468 129.801 389.48 141.847L389.782 143.252C389.782 143.654 390.083 143.754 390.485 143.754C396.409 143.754 402.334 143.855 408.259 143.855C408.359 143.855 408.46 143.855 408.46 143.855C408.56 143.754 408.761 143.654 408.761 143.554V143.453L409.263 142.048C417.297 115.646 425.33 89.3445 433.364 62.9427C427.238 62.9427 421.113 62.8423 414.987 62.8423Z" fill="white"/>
<path d="M817.769 40.4561H746.371V54.6106C746.371 57.6223 748.781 60.0315 751.794 60.0315H774.991V138.735C774.991 141.747 777.401 144.156 780.413 144.156H794.572V60.0315H823.192V45.9773C823.292 42.9657 820.782 40.4561 817.769 40.4561Z" fill="white"/>
<path d="M846.891 96.0705C846.891 93.862 847.092 91.6534 847.594 89.5453C848.397 85.7306 850.305 82.719 853.82 80.8116C856.531 79.3058 859.343 79.1051 862.355 79.4062C865.669 79.7074 868.782 80.6109 871.895 81.7151C872.096 81.8155 872.197 81.8155 872.498 81.9159C872.498 81.6147 872.498 81.414 872.498 81.2132C872.498 77.2981 872.498 73.383 872.498 69.4679C872.498 67.8617 871.895 66.7574 870.69 65.7536C869.284 64.6493 867.678 63.8462 865.971 63.4447C860.247 61.9389 854.422 61.8385 848.598 63.0431C840.364 64.8501 834.439 69.4679 830.824 77.0973C828.615 81.8155 827.61 86.9353 827.61 92.1554C827.61 107.515 827.61 122.874 827.61 138.133C827.61 139.638 828.112 140.944 829.117 142.048C829.117 142.048 829.92 143.052 831.125 143.453C831.928 143.654 832.631 143.855 833.334 143.855C837.853 143.855 842.372 143.855 846.79 143.855H847.092L846.891 96.0705Z" fill="white"/>
<path d="M886.356 62.3404C887.36 62.3404 888.364 62.3404 889.268 62.3404C892.782 62.3404 896.397 62.4408 899.912 62.3404C903.828 62.24 906.038 65.1513 906.038 68.464C905.937 82.9198 906.038 97.2751 906.038 111.731C906.038 118.858 910.757 124.781 917.686 126.187C923.912 127.492 932.95 124.279 934.657 115.445C934.858 114.642 934.858 113.739 934.858 112.835C934.858 96.472 934.858 80.0085 934.858 63.6454C934.858 63.2439 934.858 62.8423 934.858 62.3404C935.26 62.3404 935.561 62.3404 935.862 62.3404C940.08 62.3404 944.197 62.3404 948.415 62.3404C952.231 62.3404 954.44 64.5489 954.44 68.464C954.44 83.6225 954.44 98.6806 954.44 113.839C954.44 126.789 945.804 138.534 933.753 142.249C930.339 143.252 926.825 143.654 923.209 143.754C918.389 143.855 913.569 143.955 908.849 142.75C902.222 141.144 896.799 137.53 892.581 132.109C888.364 126.789 886.255 120.665 886.255 113.839C886.155 96.974 886.255 80.1089 886.255 63.2439C886.355 63.0431 886.356 62.742 886.356 62.3404Z" fill="white"/>
<path d="M968.901 122.372C969.302 122.673 969.604 122.773 969.905 122.974C977.336 127.291 985.369 129.6 993.905 129.499C996.315 129.499 998.725 129.198 1001.03 128.395C1003.65 127.391 1005.45 125.584 1005.75 122.673C1006.06 119.762 1005.15 117.453 1002.74 115.646C1000.13 113.739 997.118 112.534 994.206 111.329C989.888 109.623 985.57 108.017 981.453 105.808C980.047 105.005 978.641 104.202 977.336 103.298C971.511 99.3833 968.8 93.6612 968.599 86.7345C968.398 80.8116 970.306 75.6919 974.424 71.4756C977.436 68.3636 981.051 66.2555 985.068 64.8501C995.913 60.935 1006.56 61.6377 1017.2 65.7536C1018.01 66.0547 1018.81 66.3559 1019.51 66.7574C1019.71 66.8578 1020.01 67.2594 1020.01 67.4602C1020.01 72.3791 1020.01 77.2981 1020.01 82.2171C1020.01 82.4178 1020.01 82.6186 1019.91 82.8194C1019.71 83.5221 1019.41 83.6225 1018.91 83.2209C1016.2 81.414 1013.39 79.8078 1010.37 78.7035C1005.75 77.0973 1001.03 76.495 996.215 76.8966C993.704 77.0973 991.294 78.0008 989.185 79.4062C985.57 81.9159 985.47 87.8387 989.085 90.4488C990.892 91.7538 992.901 92.7577 994.909 93.6612C998.725 95.3678 1002.64 96.8736 1006.56 98.4798C1009.67 99.7848 1012.68 101.391 1015.5 103.399C1020.52 107.013 1023.23 112.032 1023.63 118.156C1024.13 124.58 1022.32 130.202 1017.91 134.82C1014.69 138.133 1010.68 140.341 1006.26 141.747C1001.94 143.052 997.621 143.754 993.102 143.955C989.788 144.156 986.574 143.955 983.261 143.453C978.742 142.751 974.323 141.646 970.206 139.638C969.202 139.137 968.8 138.534 968.8 137.43C968.901 132.812 968.8 128.194 968.8 123.677C968.8 123.376 968.901 122.974 968.901 122.372Z" fill="white"/>
<path d="M1081.17 144.156C1080.87 144.156 1080.67 144.256 1080.47 144.256C1074.24 144.256 1068.11 144.256 1061.89 144.156C1057.67 144.056 1053.55 143.353 1049.64 141.747C1042.01 138.635 1037.49 132.712 1035.68 124.781C1034.98 121.77 1034.57 118.658 1034.57 115.646C1034.47 90.9509 1034.57 66.2557 1034.57 41.5604C1034.57 41.3596 1034.57 41.0585 1034.57 40.7573C1034.88 40.7573 1035.18 40.7573 1035.48 40.7573C1039.6 40.7573 1043.81 40.7573 1047.93 40.7573C1051.75 40.7573 1053.96 43.0662 1053.96 46.7806C1053.96 52.9042 1053.96 58.9274 1053.96 65.051C1053.96 65.3522 1053.96 65.7537 1053.96 66.1553C1054.36 66.1553 1054.76 66.1553 1055.06 66.1553C1061.69 66.1553 1068.32 66.1553 1074.94 66.1553C1078.96 66.1553 1081.17 68.3638 1081.17 72.3793C1081.17 75.692 1081.17 79.1052 1081.17 82.418C1081.17 82.7191 1081.17 83.1207 1081.17 83.5222C1072.03 83.5222 1062.99 83.5222 1053.86 83.5222C1053.86 83.9238 1053.86 84.2249 1053.86 84.6265C1053.86 94.1633 1053.86 103.7 1053.86 113.237C1053.86 114.843 1054.06 116.55 1054.36 118.156C1055.56 123.777 1059.18 126.789 1064.9 126.889C1068.22 126.99 1071.63 126.889 1074.94 126.889C1078.76 126.889 1081.07 129.198 1081.07 133.013C1081.07 136.426 1081.07 139.839 1081.07 143.253C1081.17 143.453 1081.17 143.755 1081.17 144.156Z" fill="white"/>
</g>
<defs>
<clipPath id="clip0_40_3039">
<rect width="100.909" height="180.796" fill="white"/>
</clipPath>
<clipPath id="clip1_40_3039">
<rect width="937.013" height="108.117" fill="white" transform="translate(144.156 36.0391)"/>
</clipPath>
</defs>
</svg>
