<svg width="144" height="24" viewBox="0 0 144 24" fill="none" xmlns="http://www.w3.org/2000/svg">
<path d="M29.8489 6.18359V13.0743H23.0534V7.06971C23.0534 6.58012 22.6568 6.18359 22.1672 6.18359H19.873V22.6031C19.873 23.0926 20.2696 23.4892 20.7592 23.4892H23.0534V15.852H29.8489V22.601C29.8489 23.0906 30.2455 23.4871 30.7351 23.4871H33.0292V7.06971C33.0292 6.58012 32.6327 6.18359 32.1431 6.18359H29.8489V6.18359Z" fill="white"/>
<path d="M43.1875 10.2646V18.4643C43.1875 19.2088 42.8072 19.9148 42.1618 20.2891C40.3612 21.329 38.498 20.0301 38.498 18.3166V11.1508C38.498 10.6612 38.1014 10.2646 37.6119 10.2646H35.3096V18.6079C35.3096 21.2925 37.5067 23.4896 40.1913 23.4896H41.4962C44.1808 23.4896 46.3779 21.2925 46.3779 18.6079V11.1508C46.3779 10.6612 45.9814 10.2646 45.4918 10.2646H43.1875Z" fill="white"/>
<path d="M78.3773 23.4899H80.6715V11.8773C80.6715 11.3877 80.275 10.9912 79.7854 10.9912H77.4912V22.6038C77.4912 23.0934 77.8877 23.4899 78.3773 23.4899Z" fill="#0066ED"/>
<path d="M79.0809 9.73211C80.0608 9.73211 80.8551 8.93774 80.8551 7.95785C80.8551 6.97796 80.0608 6.18359 79.0809 6.18359C78.101 6.18359 77.3066 6.97796 77.3066 7.95785C77.3066 8.93774 78.101 9.73211 79.0809 9.73211Z" fill="#0066ED"/>
<path d="M54.699 10.2568C51.3629 10.2568 48.6338 12.6421 48.6338 15.9782V17.7828C48.6338 21.1188 51.3629 23.4899 54.699 23.4899C58.0351 23.4899 60.7643 21.1188 60.7643 17.7828V15.9782C60.7643 12.6421 58.0351 10.2568 54.699 10.2568ZM57.5678 17.9992C57.5678 19.5772 56.277 20.6272 54.699 20.6272C53.121 20.6272 51.8303 19.5772 51.8303 17.9992V15.7475C51.8303 14.1695 53.121 13.1195 54.699 13.1195C56.277 13.1195 57.5678 14.1695 57.5678 15.7475V17.9992Z" fill="white"/>
<path d="M69.1336 10.2566C68.0917 10.2566 67.1085 10.4892 66.2487 10.9121V7.05604C66.2487 6.56645 65.8521 6.16992 65.3626 6.16992H63.0684V17.7825C63.0684 21.1186 65.7975 23.4897 69.1336 23.4897C72.4697 23.4897 75.1989 21.1186 75.1989 17.7825V15.9779C75.1989 12.6418 72.4697 10.2566 69.1336 10.2566ZM72.0024 17.999C72.0024 19.577 70.7116 20.627 69.1336 20.627C67.5556 20.627 66.2649 19.577 66.2649 17.999V15.7473C66.2649 14.1692 67.5556 13.1193 69.1336 13.1193C70.7116 13.1193 72.0024 14.1692 72.0024 15.7473V17.999Z" fill="#0066ED"/>
<path d="M100.024 6.17969H87.123V8.2655C87.123 8.64584 87.4326 8.95538 87.8129 8.95538H92.2334V22.7954C92.2334 23.1757 92.5429 23.4853 92.9233 23.4853H95.3166V8.95538H100.714V6.86956C100.714 6.48922 100.405 6.17969 100.024 6.17969Z" fill="white"/>
<path d="M143.6 23.5217V21.5148C143.6 21.0394 143.216 20.655 142.74 20.657C142.259 20.6591 141.656 20.6611 141.148 20.6611C139.849 20.6611 139.105 20.0117 139.105 18.3285V13.2565H143.6V11.2537C143.6 10.7803 143.216 10.3959 142.742 10.3959H139.105V7.06385C139.105 6.59044 138.72 6.20605 138.247 6.20605H135.908V18.7128C135.908 21.7414 137.494 23.5217 140.764 23.5217C140.802 23.5217 140.875 23.5217 140.875 23.5217H143.6Z" fill="white"/>
<path d="M132.821 17.3351C132.297 16.7464 131.356 16.2082 129.946 15.6883C128.641 15.1764 128.194 14.8851 128.045 14.7556C127.842 14.5816 127.743 14.3328 127.743 13.997C127.743 13.6652 127.879 13.4244 128.184 13.2161C128.528 12.9794 128.996 12.86 129.572 12.86C130.606 12.86 131.543 13.123 132.356 13.6409L132.793 13.9181L132.835 13.914C132.896 13.91 133.038 13.8736 133.066 13.6207C133.066 13.6207 133.066 11.4701 133.066 11.3791C133.066 11.2739 132.967 11.0169 132.718 10.9117C131.508 10.406 130.373 10.2724 129.629 10.2785H129.627C128.281 10.3028 127.128 10.6447 126.2 11.2961C125.18 12.0123 124.664 12.9793 124.664 14.175C124.664 15.0045 124.895 15.7267 125.35 16.3175C125.801 16.9042 126.711 17.4646 128.136 18.031C129.184 18.4154 129.876 18.7432 130.195 19.0041C130.45 19.2145 130.569 19.4614 130.569 19.783C130.569 20.1007 130.485 20.3313 130.302 20.5093C129.995 20.8087 129.408 20.9483 128.561 20.9301C126.493 20.8816 124.97 19.8538 124.947 19.8376L124.856 19.8012L124.792 19.8376C124.696 19.8923 124.682 20.0238 124.682 20.131V22.4879L124.688 22.5263C124.723 22.6376 124.8 22.7246 124.905 22.7752C125.888 23.2688 127.047 23.5177 128.354 23.5177C129.869 23.5177 131.132 23.1758 132.103 22.5021C133.125 21.794 133.643 20.8087 133.643 19.5787C133.637 18.7007 133.361 17.944 132.821 17.3351Z" fill="white"/>
<path d="M106.297 10.1768C102.82 10.1768 101.424 12.6996 101.424 15.3437V22.5622C101.424 23.0922 101.853 23.5211 102.383 23.5211H104.73V15.9304C104.73 14.6417 105.067 13.8527 105.695 13.4481C106.192 13.0576 107.163 12.7866 109.041 13.5068V11.2793C109.041 10.8565 108.331 10.1768 106.297 10.1768Z" fill="white"/>
<path d="M119.177 10.2959V18.4955C119.177 19.24 118.796 19.9461 118.151 20.3203C116.35 21.3602 114.487 20.0614 114.487 18.3478V11.182C114.487 10.6924 114.091 10.2959 113.601 10.2959H111.299V18.6391C111.299 21.3238 113.496 23.5209 116.181 23.5209H117.485C120.17 23.5209 122.367 21.3238 122.367 18.6391V11.182C122.367 10.6924 121.971 10.2959 121.481 10.2959H119.177Z" fill="white"/>
<path d="M10.2776 7.38573C10.2776 3.94039 8.5984 0.976555 7.32183 0.011538C7.31576 0.00951492 7.22472 -0.0430856 7.23281 0.094485C7.23281 0.0965081 7.23079 0.0965081 7.23079 0.0985312C7.12559 6.7525 3.72679 8.55508 1.85744 10.9848C-2.4558 16.5908 1.556 22.737 5.64064 23.8719C7.92673 24.5072 5.11261 22.7471 4.75047 19.0286C4.31146 14.5353 10.2776 11.1062 10.2776 7.38573Z" fill="white"/>
<path d="M12.2379 9.65146C12.2116 9.63325 12.1751 9.62111 12.1488 9.66359C12.078 10.5012 11.2223 12.2936 10.1379 13.9384C6.45989 19.5181 8.55582 22.2088 9.73528 23.6533C10.4191 24.4929 9.73528 23.6533 11.4448 22.7955C11.5783 22.7288 14.7829 20.9322 15.1289 16.8395C15.4667 12.8763 13.0855 10.3777 12.2379 9.65146Z" fill="#0066ED"/>
</svg>
